<?xml version="1.0" standalone="no"?>
<!DOCTYPE svg PUBLIC "-//W3C//DTD SVG 20010904//EN"
 "http://www.w3.org/TR/2001/REC-SVG-20010904/DTD/svg10.dtd">
<svg version="1.0" xmlns="http://www.w3.org/2000/svg"
 width="180.000000pt" height="180.000000pt" viewBox="0 0 180.000000 180.000000"
 preserveAspectRatio="xMidYMid meet">
<metadata>
Created by potrace 1.10, written by Peter Selinger 2001-2011
</metadata>
<g transform="translate(0.000000,180.000000) scale(0.100000,-0.100000)"
fill="#000000" stroke="none">
<path d="M470 1482 c-19 -9 -45 -32 -57 -51 -23 -34 -23 -37 -23 -368 0 -368
0 -371 62 -415 l33 -23 422 0 421 0 38 31 c25 20 43 45 50 71 7 23 13 142 15
290 4 248 4 252 -18 282 -15 19 -23 44 -23 69 0 30 -7 45 -31 68 l-30 29 -272
-3 c-257 -3 -274 -3 -317 17 -61 28 -218 30 -270 3z m260 -37 c20 -11 81 -14
304 -15 273 0 280 -1 303 -22 13 -12 23 -29 23 -37 0 -14 -39 -16 -377 -13
-421 3 -424 2 -469 -65 -19 -29 -23 -52 -28 -200 -11 -276 -12 -387 -2 -407
13 -27 -13 -17 -36 15 -16 22 -18 53 -18 363 l-1 339 27 28 c27 29 30 29 138
29 77 -1 119 -5 136 -15z m642 -156 l31 -30 -8 -257 c-4 -160 -11 -266 -18
-281 -7 -13 -24 -33 -38 -43 -25 -19 -48 -20 -400 -21 -351 -2 -377 -1 -403
17 l-29 18 7 262 c4 143 12 278 17 298 17 67 18 67 437 68 l374 0 30 -31z"/>
<path d="M843 1230 c-83 -37 -113 -145 -48 -170 35 -13 62 -1 84 36 21 36 56
45 79 22 22 -22 12 -47 -33 -78 -46 -32 -71 -81 -63 -130 3 -22 7 -24 63 -24
55 0 60 2 63 23 2 12 23 42 47 66 139 138 -11 338 -192 255z m145 -29 c38 -19
61 -50 64 -86 5 -62 -3 -79 -52 -125 -27 -25 -50 -54 -50 -63 0 -11 -8 -17
-25 -17 -21 0 -25 5 -25 30 0 19 8 38 23 50 79 70 78 69 75 107 -2 29 -10 41
-35 55 -29 17 -34 18 -67 4 -21 -9 -40 -26 -46 -41 -10 -26 -49 -36 -51 -12
-4 46 9 70 56 99 39 23 86 23 133 -1z"/>
<path d="M877 842 c-22 -25 -21 -44 4 -76 14 -17 30 -26 49 -26 50 0 79 69 44
104 -21 22 -77 20 -97 -2z m77 -25 c8 -12 7 -21 -6 -33 -22 -22 -48 -11 -48
20 0 37 34 45 54 13z"/>
<path d="M896 377 c-24 -17 -17 -51 11 -55 30 -4 49 31 27 52 -19 19 -16 19
-38 3z"/>
</g>
</svg>
